<svg id="visual" viewBox="0 0 960 540" width="960" height="540" xmlns="http://www.w3.org/2000/svg" xmlns:xlink="http://www.w3.org/1999/xlink" version="1.1"><path d="M0 168L17.8 154.5C35.7 141 71.3 114 106.8 114C142.3 114 177.7 141 213.2 167.2C248.7 193.3 284.3 218.7 320 235C355.7 251.3 391.3 258.7 426.8 256.8C462.3 255 497.7 244 533.2 220.5C568.7 197 604.3 161 640 165.5C675.7 170 711.3 215 746.8 220.5C782.3 226 817.7 192 853.2 183C888.7 174 924.3 190 942.2 198L960 206L960 0L942.2 0C924.3 0 888.7 0 853.2 0C817.7 0 782.3 0 746.8 0C711.3 0 675.7 0 640 0C604.3 0 568.7 0 533.2 0C497.7 0 462.3 0 426.8 0C391.3 0 355.7 0 320 0C284.3 0 248.7 0 213.2 0C177.7 0 142.3 0 106.8 0C71.3 0 35.7 0 17.8 0L0 0Z" fill="#1c954c"></path><path d="M0 293L17.8 294.7C35.7 296.3 71.3 299.7 106.8 307.7C142.3 315.7 177.7 328.3 213.2 333.8C248.7 339.3 284.3 337.7 320 344.8C355.7 352 391.3 368 426.8 365.3C462.3 362.7 497.7 341.3 533.2 332.3C568.7 323.3 604.3 326.7 640 334.7C675.7 342.7 711.3 355.3 746.8 361.7C782.3 368 817.7 368 853.2 365.3C888.7 362.7 924.3 357.3 942.2 354.7L960 352L960 204L942.2 196C924.3 188 888.7 172 853.2 181C817.7 190 782.3 224 746.8 218.5C711.3 213 675.7 168 640 163.5C604.3 159 568.7 195 533.2 218.5C497.7 242 462.3 253 426.8 254.8C391.3 256.7 355.7 249.3 320 233C284.3 216.7 248.7 191.3 213.2 165.2C177.7 139 142.3 112 106.8 112C71.3 112 35.7 139 17.8 152.5L0 166Z" fill="#24b95e"></path><path d="M0 422L17.8 421.2C35.7 420.3 71.3 418.7 106.8 418.7C142.3 418.7 177.7 420.3 213.2 420.3C248.7 420.3 284.3 418.7 320 422.3C355.7 426 391.3 435 426.8 444C462.3 453 497.7 462 533.2 457.5C568.7 453 604.3 435 640 428.7C675.7 422.3 711.3 427.7 746.8 432.2C782.3 436.7 817.7 440.3 853.2 436.7C888.7 433 924.3 422 942.2 416.5L960 411L960 350L942.2 352.7C924.3 355.3 888.7 360.7 853.2 363.3C817.7 366 782.3 366 746.8 359.7C711.3 353.3 675.7 340.7 640 332.7C604.3 324.7 568.7 321.3 533.2 330.3C497.7 339.3 462.3 360.7 426.8 363.3C391.3 366 355.7 350 320 342.8C284.3 335.7 248.7 337.3 213.2 331.8C177.7 326.3 142.3 313.7 106.8 305.7C71.3 297.7 35.7 294.3 17.8 292.7L0 291Z" fill="#47d277"></path><path d="M0 541L17.8 541C35.7 541 71.3 541 106.8 541C142.3 541 177.7 541 213.2 541C248.7 541 284.3 541 320 541C355.7 541 391.3 541 426.8 541C462.3 541 497.7 541 533.2 541C568.7 541 604.3 541 640 541C675.7 541 711.3 541 746.8 541C782.3 541 817.7 541 853.2 541C888.7 541 924.3 541 942.2 541L960 541L960 409L942.2 414.5C924.3 420 888.7 431 853.2 434.7C817.7 438.3 782.3 434.7 746.8 430.2C711.3 425.7 675.7 420.3 640 426.7C604.3 433 568.7 451 533.2 455.5C497.7 460 462.3 451 426.8 442C391.3 433 355.7 424 320 420.3C284.3 416.7 248.7 418.3 213.2 418.3C177.7 418.3 142.3 416.7 106.8 416.7C71.3 416.7 35.7 418.3 17.8 419.2L0 420Z" fill="#72dd96"></path></svg>