<svg id="visual" viewBox="0 0 675 900" width="675" height="900" xmlns="http://www.w3.org/2000/svg" xmlns:xlink="http://www.w3.org/1999/xlink" version="1.1"><path d="M0 280L12.5 257.5C25 235 50 190 75 190C100 190 125 235 150 278.5C175 322 200 364 225 391C250 418 275 430 300 427C325 424 350 406 375 367C400 328 425 268 450 275.5C475 283 500 358 525 367C550 376 575 319 600 304C625 289 650 316 662.5 329.5L675 343L675 0L662.5 0C650 0 625 0 600 0C575 0 550 0 525 0C500 0 475 0 450 0C425 0 400 0 375 0C350 0 325 0 300 0C275 0 250 0 225 0C200 0 175 0 150 0C125 0 100 0 75 0C50 0 25 0 12.5 0L0 0Z" fill="#1c954c"></path><path d="M0 487L12.5 490C25 493 50 499 75 512.5C100 526 125 547 150 556C175 565 200 562 225 574C250 586 275 613 300 608.5C325 604 350 568 375 553C400 538 425 544 450 557.5C475 571 500 592 525 602.5C550 613 575 613 600 608.5C625 604 650 595 662.5 590.5L675 586L675 341L662.5 327.5C650 314 625 287 600 302C575 317 550 374 525 365C500 356 475 281 450 273.5C425 266 400 326 375 365C350 404 325 422 300 425C275 428 250 416 225 389C200 362 175 320 150 276.5C125 233 100 188 75 188C50 188 25 233 12.5 255.5L0 278Z" fill="#24b95e"></path><path d="M0 703L12.5 701.5C25 700 50 697 75 697C100 697 125 700 150 700C175 700 200 697 225 703C250 709 275 724 300 739C325 754 350 769 375 761.5C400 754 425 724 450 713.5C475 703 500 712 525 719.5C550 727 575 733 600 727C625 721 650 703 662.5 694L675 685L675 584L662.5 588.5C650 593 625 602 600 606.5C575 611 550 611 525 600.5C500 590 475 569 450 555.5C425 542 400 536 375 551C350 566 325 602 300 606.5C275 611 250 584 225 572C200 560 175 563 150 554C125 545 100 524 75 510.5C50 497 25 491 12.5 488L0 485Z" fill="#47d277"></path><path d="M0 901L12.5 901C25 901 50 901 75 901C100 901 125 901 150 901C175 901 200 901 225 901C250 901 275 901 300 901C325 901 350 901 375 901C400 901 425 901 450 901C475 901 500 901 525 901C550 901 575 901 600 901C625 901 650 901 662.5 901L675 901L675 683L662.5 692C650 701 625 719 600 725C575 731 550 725 525 717.5C500 710 475 701 450 711.5C425 722 400 752 375 759.5C350 767 325 752 300 737C275 722 250 707 225 701C200 695 175 698 150 698C125 698 100 695 75 695C50 695 25 698 12.5 699.5L0 701Z" fill="#72dd96"></path></svg>