<svg id="visual" viewBox="0 0 675 900" width="675" height="900" xmlns="http://www.w3.org/2000/svg" xmlns:xlink="http://www.w3.org/1999/xlink" version="1.1"><path d="M0 55L9.3 64C18.7 73 37.3 91 56.2 92.5C75 94 94 79 112.8 88C131.7 97 150.3 130 169 128.5C187.7 127 206.3 91 225 77.5C243.7 64 262.3 73 281.2 83.5C300 94 319 106 337.8 97C356.7 88 375.3 58 394 50.5C412.7 43 431.3 58 450 77.5C468.7 97 487.3 121 506.2 136C525 151 544 157 562.8 140.5C581.7 124 600.3 85 619 86.5C637.7 88 656.3 130 665.7 151L675 172L675 0L665.7 0C656.3 0 637.7 0 619 0C600.3 0 581.7 0 562.8 0C544 0 525 0 506.2 0C487.3 0 468.7 0 450 0C431.3 0 412.7 0 394 0C375.3 0 356.7 0 337.8 0C319 0 300 0 281.2 0C262.3 0 243.7 0 225 0C206.3 0 187.7 0 169 0C150.3 0 131.7 0 112.8 0C94 0 75 0 56.2 0C37.3 0 18.7 0 9.3 0L0 0Z" fill="#1c954c"></path><path d="M0 163L9.3 163C18.7 163 37.3 163 56.2 151C75 139 94 115 112.8 130C131.7 145 150.3 199 169 200.5C187.7 202 206.3 151 225 125.5C243.7 100 262.3 100 281.2 116.5C300 133 319 166 337.8 157C356.7 148 375.3 97 394 89.5C412.7 82 431.3 118 450 137.5C468.7 157 487.3 160 506.2 178C525 196 544 229 562.8 224.5C581.7 220 600.3 178 619 170.5C637.7 163 656.3 190 665.7 203.5L675 217L675 170L665.7 149C656.3 128 637.7 86 619 84.5C600.3 83 581.7 122 562.8 138.5C544 155 525 149 506.2 134C487.3 119 468.7 95 450 75.5C431.3 56 412.7 41 394 48.5C375.3 56 356.7 86 337.8 95C319 104 300 92 281.2 81.5C262.3 71 243.7 62 225 75.5C206.3 89 187.7 125 169 126.5C150.3 128 131.7 95 112.8 86C94 77 75 92 56.2 90.5C37.3 89 18.7 71 9.3 62L0 53Z" fill="#1fa454"></path><path d="M0 289L9.3 283C18.7 277 37.3 265 56.2 242.5C75 220 94 187 112.8 190C131.7 193 150.3 232 169 239.5C187.7 247 206.3 223 225 220C243.7 217 262.3 235 281.2 247C300 259 319 265 337.8 251.5C356.7 238 375.3 205 394 202C412.7 199 431.3 226 450 230.5C468.7 235 487.3 217 506.2 223C525 229 544 259 562.8 254.5C581.7 250 600.3 211 619 217C637.7 223 656.3 274 665.7 299.5L675 325L675 215L665.7 201.5C656.3 188 637.7 161 619 168.5C600.3 176 581.7 218 562.8 222.5C544 227 525 194 506.2 176C487.3 158 468.7 155 450 135.5C431.3 116 412.7 80 394 87.5C375.3 95 356.7 146 337.8 155C319 164 300 131 281.2 114.5C262.3 98 243.7 98 225 123.5C206.3 149 187.7 200 169 198.5C150.3 197 131.7 143 112.8 128C94 113 75 137 56.2 149C37.3 161 18.7 161 9.3 161L0 161Z" fill="#22b45b"></path><path d="M0 343L9.3 358C18.7 373 37.3 403 56.2 397C75 391 94 349 112.8 352C131.7 355 150.3 403 169 398.5C187.7 394 206.3 337 225 314.5C243.7 292 262.3 304 281.2 316C300 328 319 340 337.8 340C356.7 340 375.3 328 394 340C412.7 352 431.3 388 450 385C468.7 382 487.3 340 506.2 328C525 316 544 334 562.8 347.5C581.7 361 600.3 370 619 370C637.7 370 656.3 361 665.7 356.5L675 352L675 323L665.7 297.5C656.3 272 637.7 221 619 215C600.3 209 581.7 248 562.8 252.5C544 257 525 227 506.2 221C487.3 215 468.7 233 450 228.5C431.3 224 412.7 197 394 200C375.3 203 356.7 236 337.8 249.5C319 263 300 257 281.2 245C262.3 233 243.7 215 225 218C206.3 221 187.7 245 169 237.5C150.3 230 131.7 191 112.8 188C94 185 75 218 56.2 240.5C37.3 263 18.7 275 9.3 281L0 287Z" fill="#26c463"></path><path d="M0 370L9.3 397C18.7 424 37.3 478 56.2 478C75 478 94 424 112.8 415C131.7 406 150.3 442 169 431.5C187.7 421 206.3 364 225 349C243.7 334 262.3 361 281.2 379C300 397 319 406 337.8 398.5C356.7 391 375.3 367 394 373C412.7 379 431.3 415 450 413.5C468.7 412 487.3 373 506.2 371.5C525 370 544 406 562.8 430C581.7 454 600.3 466 619 458.5C637.7 451 656.3 424 665.7 410.5L675 397L675 350L665.7 354.5C656.3 359 637.7 368 619 368C600.3 368 581.7 359 562.8 345.5C544 332 525 314 506.2 326C487.3 338 468.7 380 450 383C431.3 386 412.7 350 394 338C375.3 326 356.7 338 337.8 338C319 338 300 326 281.2 314C262.3 302 243.7 290 225 312.5C206.3 335 187.7 392 169 396.5C150.3 401 131.7 353 112.8 350C94 347 75 389 56.2 395C37.3 401 18.7 371 9.3 356L0 341Z" fill="#37cf6e"></path><path d="M0 721L9.3 698.5C18.7 676 37.3 631 56.2 610C75 589 94 592 112.8 598C131.7 604 150.3 613 169 595C187.7 577 206.3 532 225 556C243.7 580 262.3 673 281.2 700C300 727 319 688 337.8 635.5C356.7 583 375.3 517 394 517C412.7 517 431.3 583 450 577C468.7 571 487.3 493 506.2 499C525 505 544 595 562.8 622C581.7 649 600.3 613 619 587.5C637.7 562 656.3 547 665.7 539.5L675 532L675 395L665.7 408.5C656.3 422 637.7 449 619 456.5C600.3 464 581.7 452 562.8 428C544 404 525 368 506.2 369.5C487.3 371 468.7 410 450 411.5C431.3 413 412.7 377 394 371C375.3 365 356.7 389 337.8 396.5C319 404 300 395 281.2 377C262.3 359 243.7 332 225 347C206.3 362 187.7 419 169 429.5C150.3 440 131.7 404 112.8 413C94 422 75 476 56.2 476C37.3 476 18.7 422 9.3 395L0 368Z" fill="#4ed37c"></path><path d="M0 874L9.3 869.5C18.7 865 37.3 856 56.2 839.5C75 823 94 799 112.8 791.5C131.7 784 150.3 793 169 797.5C187.7 802 206.3 802 225 811C243.7 820 262.3 838 281.2 836.5C300 835 319 814 337.8 800.5C356.7 787 375.3 781 394 781C412.7 781 431.3 787 450 803.5C468.7 820 487.3 847 506.2 860.5C525 874 544 874 562.8 863.5C581.7 853 600.3 832 619 826C637.7 820 656.3 829 665.7 833.5L675 838L675 530L665.7 537.5C656.3 545 637.7 560 619 585.5C600.3 611 581.7 647 562.8 620C544 593 525 503 506.2 497C487.3 491 468.7 569 450 575C431.3 581 412.7 515 394 515C375.3 515 356.7 581 337.8 633.5C319 686 300 725 281.2 698C262.3 671 243.7 578 225 554C206.3 530 187.7 575 169 593C150.3 611 131.7 602 112.8 596C94 590 75 587 56.2 608C37.3 629 18.7 674 9.3 696.5L0 719Z" fill="#61d889"></path><path d="M0 901L9.3 901C18.7 901 37.3 901 56.2 901C75 901 94 901 112.8 901C131.7 901 150.3 901 169 901C187.7 901 206.3 901 225 901C243.7 901 262.3 901 281.2 901C300 901 319 901 337.8 901C356.7 901 375.3 901 394 901C412.7 901 431.3 901 450 901C468.7 901 487.3 901 506.2 901C525 901 544 901 562.8 901C581.7 901 600.3 901 619 901C637.7 901 656.3 901 665.7 901L675 901L675 836L665.7 831.5C656.3 827 637.7 818 619 824C600.3 830 581.7 851 562.8 861.5C544 872 525 872 506.2 858.5C487.3 845 468.7 818 450 801.5C431.3 785 412.7 779 394 779C375.3 779 356.7 785 337.8 798.5C319 812 300 833 281.2 834.5C262.3 836 243.7 818 225 809C206.3 800 187.7 800 169 795.5C150.3 791 131.7 782 112.8 789.5C94 797 75 821 56.2 837.5C37.3 854 18.7 863 9.3 867.5L0 872Z" fill="#72dd96"></path></svg>