<svg id="visual" viewBox="0 0 960 540" width="960" height="540" xmlns="http://www.w3.org/2000/svg" xmlns:xlink="http://www.w3.org/1999/xlink" version="1.1"><path d="M0 33L13.3 38.5C26.7 44 53.3 55 80 56C106.7 57 133.3 48 160 53.3C186.7 58.7 213.3 78.3 240 77.3C266.7 76.3 293.3 54.7 320 46.7C346.7 38.7 373.3 44.3 400 50.7C426.7 57 453.3 64 480 58.5C506.7 53 533.3 35 560 30.5C586.7 26 613.3 35 640 46.7C666.7 58.3 693.3 72.7 720 81.7C746.7 90.7 773.3 94.3 800 84.5C826.7 74.7 853.3 51.3 880 52.3C906.7 53.3 933.3 78.7 946.7 91.3L960 104L960 0L946.7 0C933.3 0 906.7 0 880 0C853.3 0 826.7 0 800 0C773.3 0 746.7 0 720 0C693.3 0 666.7 0 640 0C613.3 0 586.7 0 560 0C533.3 0 506.7 0 480 0C453.3 0 426.7 0 400 0C373.3 0 346.7 0 320 0C293.3 0 266.7 0 240 0C213.3 0 186.7 0 160 0C133.3 0 106.7 0 80 0C53.3 0 26.7 0 13.3 0L0 0Z" fill="#00487d"></path><path d="M0 98L13.3 98C26.7 98 53.3 98 80 90.8C106.7 83.7 133.3 69.3 160 78.3C186.7 87.3 213.3 119.7 240 120.5C266.7 121.3 293.3 90.7 320 75.3C346.7 60 373.3 60 400 70C426.7 80 453.3 100 480 94.7C506.7 89.3 533.3 58.7 560 54.2C586.7 49.7 613.3 71.3 640 83C666.7 94.7 693.3 96.3 720 107.2C746.7 118 773.3 138 800 135.3C826.7 132.7 853.3 107.3 880 102.8C906.7 98.3 933.3 114.7 946.7 122.8L960 131L960 102L946.7 89.3C933.3 76.7 906.7 51.3 880 50.3C853.3 49.3 826.7 72.7 800 82.5C773.3 92.3 746.7 88.7 720 79.7C693.3 70.7 666.7 56.3 640 44.7C613.3 33 586.7 24 560 28.5C533.3 33 506.7 51 480 56.5C453.3 62 426.7 55 400 48.7C373.3 42.3 346.7 36.7 320 44.7C293.3 52.7 266.7 74.3 240 75.3C213.3 76.3 186.7 56.7 160 51.3C133.3 46 106.7 55 80 54C53.3 53 26.7 42 13.3 36.5L0 31Z" fill="#014f8a"></path><path d="M0 174L13.3 170.3C26.7 166.7 53.3 159.3 80 145.8C106.7 132.3 133.3 112.7 160 114.5C186.7 116.3 213.3 139.7 240 144.2C266.7 148.7 293.3 134.3 320 132.5C346.7 130.7 373.3 141.3 400 148.5C426.7 155.7 453.3 159.3 480 151.3C506.7 143.3 533.3 123.7 560 121.8C586.7 120 613.3 136 640 138.7C666.7 141.3 693.3 130.7 720 134.3C746.7 138 773.3 156 800 153.3C826.7 150.7 853.3 127.3 880 130.8C906.7 134.3 933.3 164.7 946.7 179.8L960 195L960 129L946.7 120.8C933.3 112.7 906.7 96.3 880 100.8C853.3 105.3 826.7 130.7 800 133.3C773.3 136 746.7 116 720 105.2C693.3 94.3 666.7 92.7 640 81C613.3 69.3 586.7 47.7 560 52.2C533.3 56.7 506.7 87.3 480 92.7C453.3 98 426.7 78 400 68C373.3 58 346.7 58 320 73.3C293.3 88.7 266.7 119.3 240 118.5C213.3 117.7 186.7 85.3 160 76.3C133.3 67.3 106.7 81.7 80 88.8C53.3 96 26.7 96 13.3 96L0 96Z" fill="#035696"></path><path d="M0 206L13.3 215C26.7 224 53.3 242 80 238.5C106.7 235 133.3 210 160 211.8C186.7 213.7 213.3 242.3 240 239.5C266.7 236.7 293.3 202.3 320 188.8C346.7 175.3 373.3 182.7 400 190C426.7 197.3 453.3 204.7 480 204.7C506.7 204.7 533.3 197.3 560 204.5C586.7 211.7 613.3 233.3 640 231.5C666.7 229.7 693.3 204.3 720 197.2C746.7 190 773.3 201 800 209.2C826.7 217.3 853.3 222.7 880 222.7C906.7 222.7 933.3 217.3 946.7 214.7L960 212L960 193L946.7 177.8C933.3 162.7 906.7 132.3 880 128.8C853.3 125.3 826.7 148.7 800 151.3C773.3 154 746.7 136 720 132.3C693.3 128.7 666.7 139.3 640 136.7C613.3 134 586.7 118 560 119.8C533.3 121.7 506.7 141.3 480 149.3C453.3 157.3 426.7 153.7 400 146.5C373.3 139.3 346.7 128.7 320 130.5C293.3 132.3 266.7 146.7 240 142.2C213.3 137.7 186.7 114.3 160 112.5C133.3 110.7 106.7 130.3 80 143.8C53.3 157.3 26.7 164.7 13.3 168.3L0 172Z" fill="#075da3"></path><path d="M0 222L13.3 238.3C26.7 254.7 53.3 287.3 80 287.3C106.7 287.3 133.3 254.7 160 249.2C186.7 243.7 213.3 265.3 240 259.2C266.7 253 293.3 219 320 210C346.7 201 373.3 217 400 227.7C426.7 238.3 453.3 243.7 480 239.2C506.7 234.7 533.3 220.3 560 224C586.7 227.7 613.3 249.3 640 248.5C666.7 247.7 693.3 224.3 720 223.5C746.7 222.7 773.3 244.3 800 258.7C826.7 273 853.3 280 880 275.5C906.7 271 933.3 255 946.7 247L960 239L960 210L946.7 212.7C933.3 215.3 906.7 220.7 880 220.7C853.3 220.7 826.7 215.3 800 207.2C773.3 199 746.7 188 720 195.2C693.3 202.3 666.7 227.7 640 229.5C613.3 231.3 586.7 209.7 560 202.5C533.3 195.3 506.7 202.7 480 202.7C453.3 202.7 426.7 195.3 400 188C373.3 180.7 346.7 173.3 320 186.8C293.3 200.3 266.7 234.7 240 237.5C213.3 240.3 186.7 211.7 160 209.8C133.3 208 106.7 233 80 236.5C53.3 240 26.7 222 13.3 213L0 204Z" fill="#1866ae"></path><path d="M0 433L13.3 419.5C26.7 406 53.3 379 80 366.3C106.7 353.7 133.3 355.3 160 359C186.7 362.7 213.3 368.3 240 357.7C266.7 347 293.3 320 320 334.3C346.7 348.7 373.3 404.3 400 420.5C426.7 436.7 453.3 413.3 480 381.8C506.7 350.3 533.3 310.7 560 310.7C586.7 310.7 613.3 350.3 640 346.7C666.7 343 693.3 296 720 299.5C746.7 303 773.3 357 800 373.3C826.7 389.7 853.3 368.3 880 353.2C906.7 338 933.3 329 946.7 324.5L960 320L960 237L946.7 245C933.3 253 906.7 269 880 273.5C853.3 278 826.7 271 800 256.7C773.3 242.3 746.7 220.7 720 221.5C693.3 222.3 666.7 245.7 640 246.5C613.3 247.3 586.7 225.7 560 222C533.3 218.3 506.7 232.7 480 237.2C453.3 241.7 426.7 236.3 400 225.7C373.3 215 346.7 199 320 208C293.3 217 266.7 251 240 257.2C213.3 263.3 186.7 241.7 160 247.2C133.3 252.7 106.7 285.3 80 285.3C53.3 285.3 26.7 252.7 13.3 236.3L0 220Z" fill="#2a70b6"></path><path d="M0 525L13.3 522.3C26.7 519.7 53.3 514.3 80 504.3C106.7 494.3 133.3 479.7 160 475.2C186.7 470.7 213.3 476.3 240 479.2C266.7 482 293.3 482 320 487.3C346.7 492.7 373.3 503.3 400 502.3C426.7 501.3 453.3 488.7 480 480.5C506.7 472.3 533.3 468.7 560 468.7C586.7 468.7 613.3 472.3 640 482.3C666.7 492.3 693.3 508.7 720 516.8C746.7 525 773.3 525 800 518.7C826.7 512.3 853.3 499.7 880 496C906.7 492.3 933.3 497.7 946.7 500.3L960 503L960 318L946.7 322.5C933.3 327 906.7 336 880 351.2C853.3 366.3 826.7 387.7 800 371.3C773.3 355 746.7 301 720 297.5C693.3 294 666.7 341 640 344.7C613.3 348.3 586.7 308.7 560 308.7C533.3 308.7 506.7 348.3 480 379.8C453.3 411.3 426.7 434.7 400 418.5C373.3 402.3 346.7 346.7 320 332.3C293.3 318 266.7 345 240 355.7C213.3 366.3 186.7 360.7 160 357C133.3 353.3 106.7 351.7 80 364.3C53.3 377 26.7 404 13.3 417.5L0 431Z" fill="#397bbd"></path><path d="M0 541L13.3 541C26.7 541 53.3 541 80 541C106.7 541 133.3 541 160 541C186.7 541 213.3 541 240 541C266.7 541 293.3 541 320 541C346.7 541 373.3 541 400 541C426.7 541 453.3 541 480 541C506.7 541 533.3 541 560 541C586.7 541 613.3 541 640 541C666.7 541 693.3 541 720 541C746.7 541 773.3 541 800 541C826.7 541 853.3 541 880 541C906.7 541 933.3 541 946.7 541L960 541L960 501L946.7 498.3C933.3 495.7 906.7 490.3 880 494C853.3 497.7 826.7 510.3 800 516.7C773.3 523 746.7 523 720 514.8C693.3 506.7 666.7 490.3 640 480.3C613.3 470.3 586.7 466.7 560 466.7C533.3 466.7 506.7 470.3 480 478.5C453.3 486.7 426.7 499.3 400 500.3C373.3 501.3 346.7 490.7 320 485.3C293.3 480 266.7 480 240 477.2C213.3 474.3 186.7 468.7 160 473.2C133.3 477.7 106.7 492.3 80 502.3C53.3 512.3 26.7 517.7 13.3 520.3L0 523Z" fill="#4685c5"></path></svg>