<?xml version="1.0" standalone="no"?><svg xmlns="http://www.w3.org/2000/svg" viewBox="0 0 1440 320"><path fill="#00cba9" fill-opacity="1" d="M0,96L18.5,133.3C36.9,171,74,245,111,234.7C147.7,224,185,128,222,117.3C258.5,107,295,181,332,202.7C369.2,224,406,192,443,160C480,128,517,96,554,80C590.8,64,628,64,665,101.3C701.5,139,738,213,775,224C812.3,235,849,181,886,181.3C923.1,181,960,235,997,256C1033.8,277,1071,267,1108,250.7C1144.6,235,1182,213,1218,197.3C1255.4,181,1292,171,1329,165.3C1366.2,160,1403,160,1422,160L1440,160L1440,320L1421.5,320C1403.1,320,1366,320,1329,320C1292.3,320,1255,320,1218,320C1181.5,320,1145,320,1108,320C1070.8,320,1034,320,997,320C960,320,923,320,886,320C849.2,320,812,320,775,320C738.5,320,702,320,665,320C627.7,320,591,320,554,320C516.9,320,480,320,443,320C406.2,320,369,320,332,320C295.4,320,258,320,222,320C184.6,320,148,320,111,320C73.8,320,37,320,18,320L0,320Z"></path></svg>